<mxfile host="app.diagrams.net" modified="2024-01-13T09:40:15.217Z" agent="Mozilla/5.0 (Windows NT 10.0; Win64; x64; rv:121.0) Gecko/20100101 Firefox/121.0" version="22.1.18" etag="YvoVI3abzvBaIrwSEtn6" type="github">
  <diagram name="Pagina-1" id="yhdKzJ4FaW-NScjQOo4m">
    <mxGraphModel>
      <root>
        <mxCell id="0" />
        <mxCell id="1" parent="0" />
      </root>
    </mxGraphModel>
  </diagram>
</mxfile>
